<?xml version="1.0" encoding="UTF-8"?>
<svg version="1.1" xmlns="http://www.w3.org/2000/svg" width="400" height="170">
<path d="M0 0 C132 0 264 0 400 0 C400 56.1 400 112.2 400 170 C268 170 136 170 0 170 C0 113.9 0 57.8 0 0 Z " fill="#FEFEFE" transform="translate(0,0)"/>
<path d="M0 0 C1.91407654 0.01061211 1.91407654 0.01061211 3.86682129 0.0214386 C7.23434347 0.04458561 10.6001223 0.08937859 13.96716309 0.1449585 C17.41285257 0.19641255 20.8587233 0.2190079 24.3046875 0.24414062 C31.04741261 0.29911918 37.78909331 0.38534998 44.53125 0.48828125 C43.54125 5.76828125 42.55125 11.04828125 41.53125 16.48828125 C40.03231201 16.49762695 38.53337402 16.50697266 36.98901367 16.51660156 C31.43695157 16.5564209 25.8854483 16.62215761 20.33374023 16.69580078 C17.92919077 16.72405712 15.52454761 16.74524831 13.11987305 16.75927734 C9.66666532 16.7806418 6.2145897 16.82726031 2.76171875 16.87890625 C1.14441109 16.88074921 1.14441109 16.88074921 -0.50556946 16.88262939 C-1.50638046 16.90234802 -2.50719147 16.92206665 -3.53833008 16.94238281 C-4.41991287 16.95126526 -5.30149567 16.96014771 -6.20979309 16.96929932 C-8.62641141 17.30206194 -8.62641141 17.30206194 -10.23266602 19.38500977 C-11.5606823 21.6447096 -12.13389533 23.46902293 -12.63671875 26.03515625 C-12.80751953 26.87949219 -12.97832031 27.72382812 -13.15429688 28.59375 C-13.31994141 29.46644531 -13.48558594 30.33914062 -13.65625 31.23828125 C-13.83349609 32.12644531 -14.01074219 33.01460937 -14.19335938 33.9296875 C-14.62791529 36.11421182 -15.05267912 38.30017434 -15.46875 40.48828125 C-14.43057129 40.41496582 -13.39239258 40.34165039 -12.32275391 40.26611328 C-8.42932654 40.01056849 -4.53661266 39.8513064 -0.63720703 39.71923828 C1.04179845 39.64929315 2.71996487 39.55407587 4.39599609 39.43212891 C17.93409631 38.472609 17.93409631 38.472609 22.31848145 41.87536621 C25.76734854 45.56663566 30.53125 51.26925485 30.53125 56.48828125 C14.03125 56.48828125 -2.46875 56.48828125 -19.46875 56.48828125 C-20.12875 60.44828125 -20.78875 64.40828125 -21.46875 68.48828125 C-22.26939484 72.72892799 -23.148679 76.95148742 -24.03125 81.17578125 C-24.25232422 82.25794922 -24.47339844 83.34011719 -24.70117188 84.45507812 C-24.91451172 85.48052734 -25.12785156 86.50597656 -25.34765625 87.5625 C-25.63491577 88.94828247 -25.63491577 88.94828247 -25.92797852 90.36206055 C-26.46875 92.48828125 -26.46875 92.48828125 -27.46875 93.48828125 C-30.33142567 93.56153293 -33.169469 93.5806633 -36.03125 93.55078125 C-36.83755859 93.54626953 -37.64386719 93.54175781 -38.47460938 93.53710938 C-40.47268756 93.52528643 -42.47072783 93.50735039 -44.46875 93.48828125 C-44.17447917 92.01692708 -43.88020833 90.54557292 -43.5859375 89.07421875 C-43.39136963 88.10097656 -43.19680176 87.12773438 -42.99633789 86.125 C-42.55343891 83.91133356 -42.10989506 81.69779607 -41.66577148 79.484375 C-40.43289374 73.33485044 -39.21154765 67.18340753 -38.01171875 61.02734375 C-36.54068232 53.5052424 -35.02666295 45.99287403 -33.46875 38.48828125 C-33.2197998 37.28848633 -32.97084961 36.08869141 -32.71435547 34.85253906 C-31.99121342 31.43327849 -31.23635119 28.02280533 -30.46875 24.61328125 C-30.14982788 23.09927734 -30.14982788 23.09927734 -29.82446289 21.5546875 C-27.94115377 13.46271991 -24.81673614 7.7925529 -18.10351562 2.79272461 C-12.39674911 -0.63749298 -6.47436714 -0.1361266 0 0 Z " fill="#5F83A0" transform="translate(283.46875,31.51171875)"/>
<path d="M0 0 C4.42644702 3.13938581 7.28630323 7.3042222 8.98828125 12.41015625 C9.07641558 14.20486012 9.10591845 16.00269864 9.10180664 17.79956055 C9.10173111 18.90047531 9.10165558 20.00139008 9.10157776 21.13566589 C9.09641647 22.3232399 9.09125519 23.5108139 9.0859375 24.734375 C9.08452255 25.95091263 9.0831076 27.16745026 9.08164978 28.42085266 C9.07604437 32.31314535 9.06349092 36.20538089 9.05078125 40.09765625 C9.04576695 42.73372313 9.04120392 45.36979091 9.03710938 48.00585938 C9.02607318 54.47398041 9.00880487 60.94205864 8.98828125 67.41015625 C5.02828125 67.41015625 1.06828125 67.41015625 -3.01171875 67.41015625 C-3.34171875 65.43015625 -3.67171875 63.45015625 -4.01171875 61.41015625 C-4.66398437 61.82007812 -5.31625 62.23 -5.98828125 62.65234375 C-14.02621445 67.60788369 -20.42762813 70.54844267 -30.01171875 69.41015625 C-34.89713684 68.11531048 -38.8262943 66.53630948 -42.51171875 63.03515625 C-46.18888286 56.60011906 -47.27216749 50.2445356 -45.39453125 43.04296875 C-43.09448917 36.9977254 -39.65785205 33.4961799 -34.01171875 30.41015625 C-31.06010628 29.1742594 -28.10564072 28.2185306 -25.01171875 27.41015625 C-24.42390625 27.22195312 -23.83609375 27.03375 -23.23046875 26.83984375 C-19.91930606 26.19859745 -16.61934792 26.30639994 -13.26171875 26.34765625 C-12.56433594 26.35216797 -11.86695313 26.35667969 -11.1484375 26.36132812 C-9.43616072 26.37305605 -7.72392842 26.39098972 -6.01171875 26.41015625 C-6.07201842 24.49262672 -6.16088582 22.57598199 -6.26171875 20.66015625 C-6.308125 19.5928125 -6.35453125 18.52546875 -6.40234375 17.42578125 C-7.12835822 13.83294039 -8.15544148 12.64097134 -11.01171875 10.41015625 C-19.90852441 7.44455436 -31.07752469 9.32984495 -40.01171875 11.41015625 C-41.50992934 8.03918242 -42.01171875 6.20573506 -42.01171875 2.41015625 C-28.9226877 -2.58293461 -13.34789439 -6.43188693 0 0 Z " fill="#DE7116" transform="translate(93.01171875,57.58984375)"/>
<path d="M0 0 C3.25663154 2.92200518 6.03630565 6.0726113 8 10 C8.0909215 11.8179454 8.11753467 13.63925945 8.11352539 15.45947266 C8.11344986 16.60050446 8.11337433 17.74153625 8.11329651 18.91714478 C8.10813522 20.15362762 8.10297394 21.39011047 8.09765625 22.6640625 C8.0962413 23.92640717 8.09482635 25.18875183 8.09336853 26.48934937 C8.08871078 29.84638299 8.07972408 33.203349 8.06866455 36.56036377 C8.0584377 39.98554906 8.05386818 43.41074134 8.04882812 46.8359375 C8.03778238 53.55731284 8.02050924 60.27864714 8 67 C4.37 67 0.74 67 -3 67 C-3.66 65.02 -4.32 63.04 -5 61 C-5.9590625 61.86625 -5.9590625 61.86625 -6.9375 62.75 C-14.86009923 68.57068515 -22.16923155 70.24125864 -32 69 C-36.80454846 67.50998181 -40.91838587 65.02980309 -44 61 C-46.93355162 55.13289677 -47.27513796 47.14610727 -45.34765625 40.87890625 C-41.92296659 34.279397 -35.97605574 29.78159251 -29.015625 27.5234375 C-21.44318945 25.5569523 -13.76564143 25.89345919 -6 26 C-6.16298895 18.58439 -6.16298895 18.58439 -8.9375 11.875 C-12.75413781 8.40532926 -16.26078495 8.81666459 -21.1875 8.8125 C-21.93064453 8.80025391 -22.67378906 8.78800781 -23.43945312 8.77539062 C-28.31557276 8.76256998 -32.30599448 9.54995922 -37 11 C-38.32 11 -39.64 11 -41 11 C-41.33 8.03 -41.66 5.06 -42 2 C-39.9170757 1.35284867 -37.83364461 0.70732834 -35.75 0.0625 C-34.58984375 -0.29714844 -33.4296875 -0.65679687 -32.234375 -1.02734375 C-31.16703125 -1.34832031 -30.0996875 -1.66929688 -29 -2 C-28.34773438 -2.20238281 -27.69546875 -2.40476563 -27.0234375 -2.61328125 C-18.65963059 -4.21176944 -7.58415735 -4.18294393 0 0 Z " fill="#DE7014" transform="translate(222,58)"/>
<path d="M0 0 C6.30596552 -1.00921833 12.81336531 -2.0247622 19 0 C23.92164119 3.92926022 26.96609165 9.59437991 29.859375 15.09887695 C31.03431137 17.05718806 32.32427664 18.46000783 34 20 C34.6501709 19.30438965 34.6501709 19.30438965 35.31347656 18.59472656 C37.29160732 16.47915219 39.27079357 14.36456805 41.25 12.25 C41.93191406 11.52039063 42.61382812 10.79078125 43.31640625 10.0390625 C43.98027344 9.33007812 44.64414062 8.62109375 45.328125 7.890625 C45.9355957 7.24125977 46.54306641 6.59189453 47.16894531 5.92285156 C47.77319336 5.28831055 48.37744141 4.65376953 49 4 C49.62841797 3.2678125 50.25683594 2.535625 50.90429688 1.78125 C53.5258496 -0.44694766 54.80490029 -0.46965348 58.203125 -0.390625 C59.1828125 -0.37773438 60.1625 -0.36484375 61.171875 -0.3515625 C62.18765625 -0.31804688 63.2034375 -0.28453125 64.25 -0.25 C65.28125 -0.23195312 66.3125 -0.21390625 67.375 -0.1953125 C69.91761064 -0.14822712 72.45833162 -0.0824805 75 0 C70.86226784 4.88377781 66.62393806 9.63968735 62.25 14.3125 C61.34181519 15.2876355 61.34181519 15.2876355 60.4152832 16.2824707 C56.01010408 20.98896804 51.48015437 25.52200753 46.79296875 29.94921875 C44.86963129 32.14911453 44.3179129 33.13516749 44 36 C44.90697226 38.08130905 44.90697226 38.08130905 46.4296875 40.08984375 C46.97407471 40.86859863 47.51846191 41.64735352 48.0793457 42.44970703 C48.67191162 43.27067871 49.26447754 44.09165039 49.875 44.9375 C50.46692139 45.77909668 51.05884277 46.62069336 51.66870117 47.48779297 C52.8679259 49.1916042 54.07225342 50.89183564 55.28173828 52.58837891 C57.25272606 55.35470702 59.19934675 58.13702701 61.13525391 60.92797852 C62.24749322 62.53129155 63.36764719 64.12910569 64.48828125 65.7265625 C66 68 66 68 66 69 C59.68915387 70.00999943 53.19520839 71.00871523 47 69 C42.06085688 65.10427033 39.1151404 59.45185857 36.14892578 54.00634766 C34.68435459 51.44879431 32.92346824 49.22693886 31 47 C26.77832728 51.10618623 22.77010791 55.31293349 18.96875 59.8125 C18.3190625 60.534375 17.669375 61.25625 17 62 C16.54616943 62.59176025 16.09233887 63.18352051 15.62475586 63.79321289 C13.11310566 66.76871455 11.26186791 68.72998513 7.37353516 69.56201172 C4.40717262 69.68769221 1.52600566 69.61295804 -1.4375 69.4375 C-2.45521484 69.40591797 -3.47292969 69.37433594 -4.52148438 69.34179688 C-7.01735816 69.25977285 -9.5071317 69.14510107 -12 69 C-7.86228684 64.11624462 -3.62427352 59.35997787 0.75 54.6875 C1.35690674 54.03668457 1.96381348 53.38586914 2.58911133 52.71533203 C6.94616013 48.06482706 11.4093592 43.5574206 16.01171875 39.1484375 C18.07810637 36.91560216 19.53189663 34.656568 21 32 C17.23685968 26.304129 13.4425524 20.63273439 9.57421875 15.0078125 C8.68996216 13.72161011 8.68996216 13.72161011 7.7878418 12.40942383 C6.59991941 10.683911 5.4099899 8.95977819 4.21801758 7.23706055 C3.67169678 6.44340088 3.12537598 5.64974121 2.5625 4.83203125 C2.06878906 4.11764893 1.57507813 3.4032666 1.06640625 2.66723633 C0 1 0 1 0 0 Z " fill="#5E839F" transform="translate(303,56)"/>
<path d="M0 0 C5.28 0 10.56 0 16 0 C21.12627913 15.94021666 26.22171337 31.87917254 30.421875 48.09375 C30.83364863 49.99079918 30.83364863 49.99079918 32 51 C37.97602611 36.44386937 41.07917257 20.92988772 43.421875 5.4296875 C44 2 44 2 45 0 C49.95 0 54.9 0 60 0 C57.34285791 19.48570865 51.75394454 37.96031138 44.8125 56.3125 C44.46735352 57.22668701 44.12220703 58.14087402 43.76660156 59.08276367 C43.27305176 60.36630737 43.27305176 60.36630737 42.76953125 61.67578125 C42.47667236 62.43802002 42.18381348 63.20025879 41.88208008 63.9855957 C41 66 41 66 39 69 C37.12060547 69.34057617 37.12060547 69.34057617 34.8671875 69.29296875 C34.06152344 69.28330078 33.25585938 69.27363281 32.42578125 69.26367188 C31.58402344 69.23853516 30.74226563 69.21339844 29.875 69.1875 C29.02550781 69.17396484 28.17601562 69.16042969 27.30078125 69.14648438 C25.20025163 69.11108219 23.10004707 69.05727401 21 69 C18.22968299 62.42814388 15.98618962 55.88058332 14.125 49 C12.23878226 42.20249834 10.22496269 35.48574386 7.9375 28.8125 C5.81109202 22.58954752 3.88555657 16.33660891 2.125 10 C1.909646 9.22760986 1.69429199 8.45521973 1.47241211 7.65942383 C0 2.26667637 0 2.26667637 0 0 Z " fill="#DE7116" transform="translate(110,56)"/>
<path d="M0 0 C4.95 0 9.9 0 15 0 C15.09293682 12.06603351 15.163885 24.13198097 15.20724869 36.19830036 C15.22806768 41.80200717 15.25628115 47.40546795 15.30175781 53.0090332 C15.34541869 58.42312709 15.36917983 63.83698525 15.37950897 69.25124168 C15.38686411 71.31038304 15.4012265 73.36951241 15.42292023 75.42855263 C15.65616313 98.49712555 15.65616313 98.49712555 8.921875 107.90234375 C4.24306985 112.2866198 0.09093646 115.83203957 -6 118 C-9.81373855 116.60020083 -11.77677287 114.37601157 -14 111 C-13 108 -13 108 -9.6875 105.8125 C-4.62178532 102.39028208 -2.87768379 97.63305137 -1 92 C-0.87946549 89.06435863 -0.81457403 86.15072174 -0.79467773 83.21411133 C-0.78477814 82.31634476 -0.77487854 81.41857819 -0.76467896 80.49360657 C-0.73306544 77.52310838 -0.70830705 74.5525942 -0.68359375 71.58203125 C-0.6630241 69.52365196 -0.64202762 67.46527689 -0.62062073 65.40690613 C-0.56540122 59.98673928 -0.51599137 54.56653432 -0.46777344 49.14630127 C-0.41755757 43.61637984 -0.36187194 38.08651383 -0.30664062 32.55664062 C-0.19906051 21.70447441 -0.09761517 10.8522601 0 0 Z " fill="#DE7014" transform="translate(22,32)"/>
<path d="M0 0 C1.37458017 14.28884568 1.37458017 14.28884568 -1.8984375 18.36328125 C-7.46210184 21.99136657 -13.30261029 24.05947408 -20 23 C-24.38633687 20.65017668 -24.38633687 20.65017668 -26 18 C-27.0168072 13.22882776 -26.73072766 9.373768 -24.4375 5.0625 C-17.03531322 -1.20088882 -9.17240893 -0.31873236 0 0 Z " fill="#FDFAF6" transform="translate(88,93)"/>
<path d="M0 0 C1.16144531 0.00902344 2.32289063 0.01804687 3.51953125 0.02734375 C4.39996094 0.03894531 5.28039062 0.05054687 6.1875 0.0625 C7.406797 15.42225523 7.406797 15.42225523 4.546875 19.26953125 C2.42208866 20.57194658 0.58570967 21.39730316 -1.8125 22.0625 C-2.47894531 22.25070313 -3.14539063 22.43890625 -3.83203125 22.6328125 C-7.19729585 23.3629488 -10.42828849 23.68025289 -13.8125 23.0625 C-16.50355198 20.88675584 -18.26782928 19.15184144 -19.8125 16.0625 C-20.18843152 11.08140741 -19.9890161 8.00576136 -16.8125 4.0625 C-11.49019759 0.14080349 -6.45844205 -0.06523679 0 0 Z " fill="#FDFBF8" transform="translate(209.8125,92.9375)"/>
<path d="M0 0 C0.66 0 1.32 0 2 0 C2.33 0.66 2.66 1.32 3 2 C4.32 1.34 5.64 0.68 7 0 C7 2.31 7 4.62 7 7 C6.21625 6.814375 5.4325 6.62875 4.625 6.4375 C2.02910225 5.74037734 2.02910225 5.74037734 0 7 C0 4.69 0 2.38 0 0 Z " fill="#7091AA" transform="translate(388,56)"/>
<path d="M0 0 C1.65 0 3.3 0 5 0 C4.67 2.31 4.34 4.62 4 7 C3.34 7 2.68 7 2 7 C2 5.35 2 3.7 2 2 C1.34 2 0.68 2 0 2 C0 1.34 0 0.68 0 0 Z " fill="#84A0B5" transform="translate(382,56)"/>
<path d="M0 0 C0.66 0 1.32 0 2 0 C2 2.31 2 4.62 2 7 C1.34 7 0.68 7 0 7 C-0.38133299 5.0085944 -0.71325582 3.00720923 -1 1 C-0.67 0.67 -0.34 0.34 0 0 Z " fill="#8CA7BB" transform="translate(393,56)"/>
</svg>
